<svg width="33" height="33" viewBox="0 0 33 33" fill="none" xmlns="http://www.w3.org/2000/svg">
<g id="fluent-emoji:coin">
<g id="Group">
<g id="Group_2" filter="url(#filter0_i_242_400)">
<path id="Vector" d="M16.125 27.4785C22.1311 27.4785 27 22.6095 27 16.6035C27 10.5974 22.1311 5.72845 16.125 5.72845C10.1189 5.72845 5.25 10.5974 5.25 16.6035C5.25 22.6095 10.1189 27.4785 16.125 27.4785Z" fill="url(#paint0_linear_242_400)"/>
</g>
<g id="Group_3" filter="url(#filter1_iiii_242_400)">
<path id="Vector_2" fill-rule="evenodd" clip-rule="evenodd" d="M16.125 30.5725C23.84 30.5725 30.094 24.3185 30.094 16.6035C30.094 8.88845 23.84 2.63445 16.125 2.63445C8.41001 2.63445 2.15601 8.88945 2.15601 16.6045C2.15601 24.3185 8.41001 30.5725 16.125 30.5725ZM16.125 27.4785C22.131 27.4785 27 22.6095 27 16.6035C27 10.5975 22.131 5.72945 16.125 5.72945C10.119 5.72945 5.25001 10.5975 5.25001 16.6035C5.25001 22.6095 10.119 27.4795 16.125 27.4795" fill="url(#paint1_linear_242_400)"/>
</g>
<g id="Group_4" filter="url(#filter2_f_242_400)">
<path id="Vector_3" fill-rule="evenodd" clip-rule="evenodd" d="M10.038 11.5045C9.95269 11.5587 9.88249 11.6336 9.83389 11.7223C9.78529 11.8109 9.75987 11.9104 9.75999 12.0115V12.2915C9.76002 12.4133 9.80455 12.5309 9.8852 12.6223C9.96586 12.7136 10.0771 12.7723 10.198 12.7875V20.3845H10.09C9.93507 20.3846 9.78456 20.4361 9.66205 20.5309C9.53954 20.6257 9.45194 20.7585 9.41299 20.9085L9.10299 22.0945C9.08373 22.1684 9.08168 22.2458 9.09699 22.3206C9.1123 22.3955 9.14456 22.4658 9.19129 22.5263C9.23803 22.5867 9.298 22.6357 9.36659 22.6693C9.43519 22.703 9.51058 22.7205 9.58699 22.7205H22.037C22.1122 22.7206 22.1865 22.7037 22.2543 22.6711C22.3221 22.6385 22.3817 22.591 22.4286 22.5322C22.4755 22.4734 22.5086 22.4047 22.5252 22.3313C22.5419 22.258 22.5418 22.1818 22.525 22.1085L22.253 20.9275C22.2174 20.773 22.1305 20.6352 22.0064 20.5365C21.8824 20.4379 21.7285 20.3843 21.57 20.3845H21.463V12.7845C21.5805 12.7659 21.6875 12.7061 21.7648 12.6157C21.8422 12.5254 21.8848 12.4104 21.885 12.2915V12.0115C21.8852 11.9105 21.86 11.811 21.8115 11.7224C21.7631 11.6338 21.6931 11.5588 21.608 11.5045L16.225 8.07945C16.1046 8.00273 15.9648 7.96198 15.822 7.96198C15.6792 7.96198 15.5394 8.00273 15.419 8.07945L10.038 11.5045ZM19.854 20.3845V12.7915H18.244V20.3845H19.854ZM16.635 20.3845V12.7915H15.025V20.3845H16.635ZM13.416 20.3845V12.7915H11.807V20.3845H13.416Z" fill="#DC7B3C"/>
</g>
<g id="Group_5" filter="url(#filter3_ii_242_400)">
<path id="Vector_4" d="M10.073 11.7295C10.0729 11.6286 10.0983 11.5294 10.1467 11.441C10.1951 11.3525 10.265 11.2777 10.35 11.2235L15.733 7.79745C15.8533 7.72094 15.9929 7.6803 16.1355 7.6803C16.2781 7.6803 16.4177 7.72094 16.538 7.79745L21.92 11.2235C22.0051 11.2776 22.0753 11.3524 22.1239 11.4408C22.1725 11.5293 22.198 11.6285 22.198 11.7295V12.0095C22.198 12.1421 22.1453 12.2692 22.0516 12.363C21.9578 12.4568 21.8306 12.5095 21.698 12.5095H10.573C10.4404 12.5095 10.3132 12.4568 10.2194 12.363C10.1257 12.2692 10.073 12.1421 10.073 12.0095V11.7295Z" fill="#FFC546"/>
</g>
<path id="Vector_5" d="M10.073 11.7295C10.0729 11.6286 10.0983 11.5294 10.1467 11.441C10.1951 11.3525 10.265 11.2777 10.35 11.2235L15.733 7.79745C15.8533 7.72094 15.9929 7.6803 16.1355 7.6803C16.2781 7.6803 16.4177 7.72094 16.538 7.79745L21.92 11.2235C22.0051 11.2776 22.0753 11.3524 22.1239 11.4408C22.1725 11.5293 22.198 11.6285 22.198 11.7295V12.0095C22.198 12.1421 22.1453 12.2692 22.0516 12.363C21.9578 12.4568 21.8306 12.5095 21.698 12.5095H10.573C10.4404 12.5095 10.3132 12.4568 10.2194 12.363C10.1257 12.2692 10.073 12.1421 10.073 12.0095V11.7295Z" fill="url(#paint2_linear_242_400)"/>
<path id="Vector_6" d="M10.51 12.3065C10.51 12.2401 10.5363 12.1766 10.5832 12.1297C10.6301 12.0828 10.6937 12.0565 10.76 12.0565H11.87C11.9363 12.0565 11.9999 12.0828 12.0468 12.1297C12.0937 12.1766 12.12 12.2401 12.12 12.3065V20.3225H10.51V12.3065Z" fill="url(#paint3_linear_242_400)"/>
<path id="Vector_7" d="M10.51 12.3065C10.51 12.2401 10.5363 12.1766 10.5832 12.1297C10.6301 12.0828 10.6937 12.0565 10.76 12.0565H11.87C11.9363 12.0565 11.9999 12.0828 12.0468 12.1297C12.0937 12.1766 12.12 12.2401 12.12 12.3065V20.3225H10.51V12.3065Z" fill="url(#paint4_linear_242_400)"/>
<path id="Vector_8" d="M13.729 12.0565H15.338V20.3225H13.729V12.0565Z" fill="url(#paint5_linear_242_400)"/>
<path id="Vector_9" d="M13.729 12.0565H15.338V20.3225H13.729V12.0565Z" fill="url(#paint6_linear_242_400)"/>
<path id="Vector_10" d="M16.948 12.0565H18.557V20.3225H16.948V12.0565Z" fill="url(#paint7_linear_242_400)"/>
<path id="Vector_11" d="M16.948 12.0565H18.557V20.3225H16.948V12.0565Z" fill="url(#paint8_linear_242_400)"/>
<path id="Vector_12" d="M20.166 12.0565H21.775V20.3225H20.166V12.0565Z" fill="url(#paint9_linear_242_400)"/>
<path id="Vector_13" d="M20.166 12.0565H21.775V20.3225H20.166V12.0565Z" fill="url(#paint10_linear_242_400)"/>
<g id="Group_6" filter="url(#filter4_ii_242_400)">
<path id="Vector_14" d="M9.72498 20.6265C9.76416 20.4765 9.85198 20.3438 9.97468 20.2492C10.0974 20.1545 10.248 20.1033 10.403 20.1035H21.883C22.0413 20.1035 22.195 20.1572 22.3188 20.2558C22.4427 20.3545 22.5295 20.4922 22.565 20.6465L22.838 21.8265C22.855 21.8999 22.8552 21.9761 22.8386 22.0496C22.822 22.1231 22.789 22.1919 22.7421 22.2509C22.6952 22.3098 22.6355 22.3574 22.5676 22.3901C22.4997 22.4227 22.4253 22.4396 22.35 22.4395H9.89998C9.82357 22.4395 9.74817 22.422 9.67958 22.3883C9.61098 22.3547 9.55102 22.3057 9.50428 22.2453C9.45755 22.1848 9.42529 22.1145 9.40998 22.0396C9.39467 21.9648 9.39672 21.8874 9.41598 21.8135L9.72498 20.6265Z" fill="#FFC248"/>
</g>
</g>
</g>
<defs>
<filter id="filter0_i_242_400" x="5" y="5.72845" width="22" height="22" filterUnits="userSpaceOnUse" color-interpolation-filters="sRGB">
<feFlood flood-opacity="0" result="BackgroundImageFix"/>
<feBlend mode="normal" in="SourceGraphic" in2="BackgroundImageFix" result="shape"/>
<feColorMatrix in="SourceAlpha" type="matrix" values="0 0 0 0 0 0 0 0 0 0 0 0 0 0 0 0 0 0 127 0" result="hardAlpha"/>
<feOffset dx="-0.25" dy="0.25"/>
<feGaussianBlur stdDeviation="0.5"/>
<feComposite in2="hardAlpha" operator="arithmetic" k2="-1" k3="1"/>
<feColorMatrix type="matrix" values="0 0 0 0 0.831373 0 0 0 0 0.45098 0 0 0 0 0.196078 0 0 0 1 0"/>
<feBlend mode="normal" in2="shape" result="effect1_innerShadow_242_400"/>
</filter>
<filter id="filter1_iiii_242_400" x="1.85601" y="2.33445" width="28.538" height="28.538" filterUnits="userSpaceOnUse" color-interpolation-filters="sRGB">
<feFlood flood-opacity="0" result="BackgroundImageFix"/>
<feBlend mode="normal" in="SourceGraphic" in2="BackgroundImageFix" result="shape"/>
<feColorMatrix in="SourceAlpha" type="matrix" values="0 0 0 0 0 0 0 0 0 0 0 0 0 0 0 0 0 0 127 0" result="hardAlpha"/>
<feOffset dx="0.3" dy="0.3"/>
<feGaussianBlur stdDeviation="0.3"/>
<feComposite in2="hardAlpha" operator="arithmetic" k2="-1" k3="1"/>
<feColorMatrix type="matrix" values="0 0 0 0 0.886275 0 0 0 0 0.662745 0 0 0 0 0.235294 0 0 0 1 0"/>
<feBlend mode="normal" in2="shape" result="effect1_innerShadow_242_400"/>
<feColorMatrix in="SourceAlpha" type="matrix" values="0 0 0 0 0 0 0 0 0 0 0 0 0 0 0 0 0 0 127 0" result="hardAlpha"/>
<feOffset dx="0.3" dy="-0.3"/>
<feGaussianBlur stdDeviation="0.3"/>
<feComposite in2="hardAlpha" operator="arithmetic" k2="-1" k3="1"/>
<feColorMatrix type="matrix" values="0 0 0 0 0.956863 0 0 0 0 0.607843 0 0 0 0 0.294118 0 0 0 1 0"/>
<feBlend mode="normal" in2="effect1_innerShadow_242_400" result="effect2_innerShadow_242_400"/>
<feColorMatrix in="SourceAlpha" type="matrix" values="0 0 0 0 0 0 0 0 0 0 0 0 0 0 0 0 0 0 127 0" result="hardAlpha"/>
<feOffset dy="-0.3"/>
<feGaussianBlur stdDeviation="0.3"/>
<feComposite in2="hardAlpha" operator="arithmetic" k2="-1" k3="1"/>
<feColorMatrix type="matrix" values="0 0 0 0 0.956863 0 0 0 0 0.607843 0 0 0 0 0.294118 0 0 0 1 0"/>
<feBlend mode="normal" in2="effect2_innerShadow_242_400" result="effect3_innerShadow_242_400"/>
<feColorMatrix in="SourceAlpha" type="matrix" values="0 0 0 0 0 0 0 0 0 0 0 0 0 0 0 0 0 0 127 0" result="hardAlpha"/>
<feOffset dx="-0.3" dy="0.3"/>
<feGaussianBlur stdDeviation="0.3"/>
<feComposite in2="hardAlpha" operator="arithmetic" k2="-1" k3="1"/>
<feColorMatrix type="matrix" values="0 0 0 0 1 0 0 0 0 0.882353 0 0 0 0 0.337255 0 0 0 1 0"/>
<feBlend mode="normal" in2="effect3_innerShadow_242_400" result="effect4_innerShadow_242_400"/>
</filter>
<filter id="filter2_f_242_400" x="8.48685" y="7.36198" width="14.6509" height="15.9585" filterUnits="userSpaceOnUse" color-interpolation-filters="sRGB">
<feFlood flood-opacity="0" result="BackgroundImageFix"/>
<feBlend mode="normal" in="SourceGraphic" in2="BackgroundImageFix" result="shape"/>
<feGaussianBlur stdDeviation="0.3" result="effect1_foregroundBlur_242_400"/>
</filter>
<filter id="filter3_ii_242_400" x="10.073" y="7.4303" width="12.275" height="5.32915" filterUnits="userSpaceOnUse" color-interpolation-filters="sRGB">
<feFlood flood-opacity="0" result="BackgroundImageFix"/>
<feBlend mode="normal" in="SourceGraphic" in2="BackgroundImageFix" result="shape"/>
<feColorMatrix in="SourceAlpha" type="matrix" values="0 0 0 0 0 0 0 0 0 0 0 0 0 0 0 0 0 0 127 0" result="hardAlpha"/>
<feOffset dy="-0.25"/>
<feGaussianBlur stdDeviation="0.25"/>
<feComposite in2="hardAlpha" operator="arithmetic" k2="-1" k3="1"/>
<feColorMatrix type="matrix" values="0 0 0 0 0.980392 0 0 0 0 0.647059 0 0 0 0 0.172549 0 0 0 1 0"/>
<feBlend mode="normal" in2="shape" result="effect1_innerShadow_242_400"/>
<feColorMatrix in="SourceAlpha" type="matrix" values="0 0 0 0 0 0 0 0 0 0 0 0 0 0 0 0 0 0 127 0" result="hardAlpha"/>
<feOffset dx="0.15" dy="0.25"/>
<feGaussianBlur stdDeviation="0.25"/>
<feComposite in2="hardAlpha" operator="arithmetic" k2="-1" k3="1"/>
<feColorMatrix type="matrix" values="0 0 0 0 0.980392 0 0 0 0 0.647059 0 0 0 0 0.172549 0 0 0 1 0"/>
<feBlend mode="normal" in2="effect1_innerShadow_242_400" result="effect2_innerShadow_242_400"/>
</filter>
<filter id="filter4_ii_242_400" x="9.14984" y="19.8535" width="13.951" height="2.836" filterUnits="userSpaceOnUse" color-interpolation-filters="sRGB">
<feFlood flood-opacity="0" result="BackgroundImageFix"/>
<feBlend mode="normal" in="SourceGraphic" in2="BackgroundImageFix" result="shape"/>
<feColorMatrix in="SourceAlpha" type="matrix" values="0 0 0 0 0 0 0 0 0 0 0 0 0 0 0 0 0 0 127 0" result="hardAlpha"/>
<feOffset dx="0.25" dy="-0.25"/>
<feGaussianBlur stdDeviation="0.2"/>
<feComposite in2="hardAlpha" operator="arithmetic" k2="-1" k3="1"/>
<feColorMatrix type="matrix" values="0 0 0 0 0.992157 0 0 0 0 0.658824 0 0 0 0 0.0705882 0 0 0 1 0"/>
<feBlend mode="normal" in2="shape" result="effect1_innerShadow_242_400"/>
<feColorMatrix in="SourceAlpha" type="matrix" values="0 0 0 0 0 0 0 0 0 0 0 0 0 0 0 0 0 0 127 0" result="hardAlpha"/>
<feOffset dx="-0.25" dy="0.25"/>
<feGaussianBlur stdDeviation="0.2"/>
<feComposite in2="hardAlpha" operator="arithmetic" k2="-1" k3="1"/>
<feColorMatrix type="matrix" values="0 0 0 0 1 0 0 0 0 0.8 0 0 0 0 0.290196 0 0 0 1 0"/>
<feBlend mode="normal" in2="effect1_innerShadow_242_400" result="effect2_innerShadow_242_400"/>
</filter>
<linearGradient id="paint0_linear_242_400" x1="11.688" y1="22.0415" x2="23.438" y2="7.22845" gradientUnits="userSpaceOnUse">
<stop stop-color="#F19D48"/>
<stop offset="1" stop-color="#E89A44"/>
</linearGradient>
<linearGradient id="paint1_linear_242_400" x1="16.125" y1="2.63445" x2="16.125" y2="30.5725" gradientUnits="userSpaceOnUse">
<stop stop-color="#FFC444"/>
<stop offset="1" stop-color="#FFC24B"/>
</linearGradient>
<linearGradient id="paint2_linear_242_400" x1="19.438" y1="9.47845" x2="19.031" y2="10.0955" gradientUnits="userSpaceOnUse">
<stop offset="0.459" stop-color="#FFCA3F"/>
<stop offset="1" stop-color="#FFCA3F" stop-opacity="0"/>
</linearGradient>
<linearGradient id="paint3_linear_242_400" x1="10.656" y1="15.2485" x2="11.438" y2="15.2485" gradientUnits="userSpaceOnUse">
<stop offset="0.167" stop-color="#FFB33B"/>
<stop offset="1" stop-color="#FFC047"/>
</linearGradient>
<linearGradient id="paint4_linear_242_400" x1="12.12" y1="16.8755" x2="11.734" y2="16.8755" gradientUnits="userSpaceOnUse">
<stop offset="0.067" stop-color="#FFC34C"/>
<stop offset="1" stop-color="#FFC34C" stop-opacity="0"/>
</linearGradient>
<linearGradient id="paint5_linear_242_400" x1="13.875" y1="15.2485" x2="14.656" y2="15.2485" gradientUnits="userSpaceOnUse">
<stop offset="0.167" stop-color="#FFB33B"/>
<stop offset="1" stop-color="#FFC047"/>
</linearGradient>
<linearGradient id="paint6_linear_242_400" x1="15.338" y1="16.8755" x2="14.953" y2="16.8755" gradientUnits="userSpaceOnUse">
<stop offset="0.067" stop-color="#FFC34C"/>
<stop offset="1" stop-color="#FFC34C" stop-opacity="0"/>
</linearGradient>
<linearGradient id="paint7_linear_242_400" x1="17.094" y1="15.2485" x2="17.875" y2="15.2485" gradientUnits="userSpaceOnUse">
<stop offset="0.167" stop-color="#FFB33B"/>
<stop offset="1" stop-color="#FFC047"/>
</linearGradient>
<linearGradient id="paint8_linear_242_400" x1="18.557" y1="16.8755" x2="18.172" y2="16.8755" gradientUnits="userSpaceOnUse">
<stop offset="0.067" stop-color="#FFC34C"/>
<stop offset="1" stop-color="#FFC34C" stop-opacity="0"/>
</linearGradient>
<linearGradient id="paint9_linear_242_400" x1="20.313" y1="15.2485" x2="21.094" y2="15.2485" gradientUnits="userSpaceOnUse">
<stop offset="0.167" stop-color="#FFB33B"/>
<stop offset="1" stop-color="#FFC047"/>
</linearGradient>
<linearGradient id="paint10_linear_242_400" x1="21.776" y1="16.8755" x2="21.391" y2="16.8755" gradientUnits="userSpaceOnUse">
<stop offset="0.067" stop-color="#FFC34C"/>
<stop offset="1" stop-color="#FFC34C" stop-opacity="0"/>
</linearGradient>
</defs>
</svg>
